<?xml version="1.0" encoding="UTF-8" standalone="no"?>
<!DOCTYPE svg PUBLIC "-//W3C//DTD SVG 1.1//EN" "http://www.w3.org/Graphics/SVG/1.1/DTD/svg11.dtd">
<svg width="100%" height="100%" viewBox="0 0 2939 1390" version="1.1" xmlns="http://www.w3.org/2000/svg" xmlns:xlink="http://www.w3.org/1999/xlink" xml:space="preserve" xmlns:serif="http://www.serif.com/" style="fill-rule:evenodd;clip-rule:evenodd;stroke-linejoin:round;stroke-miterlimit:2;">
    <g transform="matrix(1,0,0,1,-9412.005,-11307.91125)">
        <g transform="matrix(4.166667,0,0,4.166667,8798,9919.5)">
            <g transform="matrix(1,0,0,1,151.8401,455.8775)">
                <path d="M0,90.997C0.629,90.05 0.991,88.767 1.082,87.143L1.082,3.851C0.991,2.23 0.629,0.944 0,-0C-0.632,-0.947 -1.758,-1.422 -3.381,-1.422L-3.381,-1.826L39.753,-1.826L42.051,4.665L41.646,4.798C41.014,3.087 40.112,1.823 38.941,1.013C37.768,0.202 36.281,-0.205 34.479,-0.205L9.6,-0.205C8.247,-0.205 7.39,-0.068 7.031,0.202C6.579,0.472 6.287,0.991 6.152,1.758C6.017,2.525 5.949,3.357 5.949,4.258L5.949,36.573L25.285,36.573C25.644,36.573 26.096,36.486 26.636,36.303C27.628,35.762 28.124,34.501 28.124,32.517L28.666,32.517L28.666,42.116L28.124,42.116C28.124,40.045 27.628,38.784 26.636,38.331C26.276,38.154 25.69,38.06 24.88,38.06L5.949,38.06L5.949,87.143C6.037,88.767 6.399,90.05 7.031,90.997C7.66,91.944 8.789,92.416 10.412,92.416L10.412,92.823L-3.381,92.823L-3.381,92.416C-1.758,92.416 -0.632,91.944 0,90.997" style="fill:rgb(230,222,214);fill-rule:nonzero;"/>
            </g>
        </g>
        <g transform="matrix(4.166667,0,0,4.166667,8798,9919.5)">
            <g transform="matrix(1,0,0,1,222.9605,456.7568)">
                <path d="M0,89.509C-4.418,87.708 -7.708,85.363 -9.871,82.478C-11.584,80.136 -12.778,77.633 -13.454,74.974C-14.131,72.316 -14.468,69.319 -14.468,65.983L-14.468,2.972C-14.559,1.351 -14.92,0.065 -15.55,-0.879C-16.182,-1.826 -17.308,-2.302 -18.931,-2.302L-18.931,-2.705L-5.138,-2.705L-5.138,-2.302C-6.761,-2.302 -7.89,-1.826 -8.519,-0.879C-9.151,0.065 -9.511,1.351 -9.601,2.972L-9.601,66.254C-9.601,71.03 -8.924,74.953 -7.572,78.015C-5.86,82.074 -2.907,85.205 1.284,87.413C5.475,89.624 10.005,90.726 14.873,90.726C18.659,90.726 22.195,90.028 25.487,88.63C28.776,87.233 31.322,85.183 33.127,82.478C36.101,78.242 37.498,72.835 37.318,66.254L37.318,2.972C37.228,1.351 36.866,0.065 36.236,-0.879C35.605,-1.826 34.479,-2.302 32.857,-2.302L32.857,-2.705L43.267,-2.705L43.267,-2.302C41.644,-2.302 40.517,-1.826 39.886,-0.879C39.256,0.065 38.894,1.351 38.806,2.972L38.806,64.496C38.806,67.741 38.737,70.266 38.602,72.067C38.467,73.872 38.039,75.763 37.318,77.745C33.983,87.481 25.869,92.214 12.98,91.944C8.743,92.124 4.415,91.313 0,89.509" style="fill:rgb(230,222,214);fill-rule:nonzero;"/>
            </g>
        </g>
        <g transform="matrix(4.166667,0,0,4.166667,8798,9919.5)">
            <g transform="matrix(1,0,0,1,349.1107,457.6357)">
                <path d="M0,87.481C3.424,88.698 7.255,89.354 11.493,89.441L21.094,89.441C25.96,89.441 30.647,88.677 35.155,87.142C40.922,85.161 46.017,81.894 50.435,77.341C54.85,72.788 58.277,67.424 60.71,61.25C63.143,55.076 64.361,48.697 64.361,42.116C64.361,35.085 62.873,28.485 59.9,22.308C56.924,16.134 52.416,10.929 46.377,6.693C42.41,3.897 38.15,1.758 33.6,0.27C29.048,-1.218 24.426,-1.963 19.741,-1.963L-7.166,-1.963C-7.798,-1.963 -8.249,-1.826 -8.519,-1.556C-8.971,-1.286 -9.263,-0.833 -9.398,-0.205C-9.533,0.428 -9.6,1.149 -9.6,1.959L-9.6,82.006C-6.626,84.437 -3.427,86.264 0,87.481M-72.474,85.385L-72.474,2.093C-72.474,-1.423 -73.917,-3.18 -76.801,-3.18L-76.801,-3.584L-68.689,-3.584L-26.908,61.048C-23.844,65.645 -21.072,69.521 -18.592,72.676C-16.114,75.832 -13.656,78.49 -11.222,80.652L-11.222,2.093C-11.222,-1.423 -12.665,-3.18 -15.55,-3.18L-15.55,-3.584L23.122,-3.584C31.322,-3.584 38.962,-1.534 46.04,2.568C53.115,6.671 58.75,12.258 62.942,19.333C67.133,26.411 69.229,34.187 69.229,42.66C69.229,49.418 67.945,55.977 65.375,62.331C62.806,68.685 59.021,74.254 54.017,79.03C49.014,83.81 43.042,87.233 36.102,89.307C33.486,90.028 31.031,90.503 28.732,90.726C26.434,90.953 23.842,91.065 20.957,91.065L11.358,91.065C6.037,90.975 0.967,90.006 -3.854,88.158C-8.677,86.31 -13.115,83.81 -17.171,80.652C-19.696,78.49 -21.973,76.145 -24.001,73.62C-26.029,71.098 -28.305,67.943 -30.829,64.157L-70.852,2.23L-70.852,85.385C-70.763,87.009 -70.425,88.292 -69.838,89.239C-69.252,90.186 -68.103,90.658 -66.389,90.658L-66.389,91.065L-76.801,91.065L-76.801,90.658C-73.917,90.658 -72.474,88.9 -72.474,85.385" style="fill:rgb(230,222,214);fill-rule:nonzero;"/>
            </g>
        </g>
        <g transform="matrix(4.166667,0,0,4.166667,8798,9919.5)">
            <g transform="matrix(1,0,0,1,444.0316,501.5124)">
                <path d="M0,-0.273C5.138,-2.975 10.412,-4.329 15.82,-4.329C18.254,-4.329 20.552,-4.059 22.717,-3.518L8.114,-41.917L-12.71,11.221C-9.376,6.264 -5.138,2.432 0,-0.273M-28.666,45.564C-27.853,44.753 -27.043,43.222 -26.231,40.968C-18.3,21.138 -11.449,3.74 -5.679,-11.224L7.301,-44.215L6.896,-45.026C6.264,-46.38 5.003,-47.057 3.11,-47.057L3.11,-47.461L11.358,-47.461L45.837,43.266C46.919,45.52 48.677,46.694 51.11,46.781L51.11,47.188L37.32,47.188L37.32,46.781C39.391,46.694 40.428,45.834 40.428,44.213C40.428,43.402 40.203,42.455 39.753,41.374L23.527,-1.49C21.094,-2.211 18.389,-2.571 15.415,-2.571C8.743,-2.571 2.523,-0.428 -3.245,3.851C-9.014,8.134 -13.477,13.973 -16.631,21.361L-24.743,41.778C-25.197,42.862 -25.42,43.806 -25.42,44.62C-25.42,46.061 -24.473,46.781 -22.58,46.781L-22.58,47.188L-32.992,47.188L-32.992,46.781C-30.917,46.781 -29.476,46.378 -28.666,45.564" style="fill:rgb(230,222,214);fill-rule:nonzero;"/>
            </g>
        </g>
        <g transform="matrix(4.166667,0,0,4.166667,8798,9919.5)">
            <g transform="matrix(1,0,0,1,601.811,548.2742)">
                <path d="M0,-93.817L0,-94.23L-9.445,-94.23L-54.064,-7.283L-95.439,-94.23L-101.513,-94.23C-101.418,-93.913 -101.354,-93.594 -101.29,-93.276C-100.623,-92.99 -99.096,-88.538 -99.096,-88.538L-99.096,-5.248C-99.096,-1.749 -100.591,0.032 -103.548,0.032L-103.548,0.413L-93.022,0.413L-93.022,0.032C-95.979,0.032 -97.474,-1.749 -97.474,-5.248L-97.474,-87.043L-56.926,-1.463L-56.099,0.413L-9.445,-91.114L-9.445,-5.248C-9.445,-1.749 -10.908,-0.032 -13.77,-0.127L-13.77,0.413L0,0.413L0,-0.127C-2.958,-0.032 -4.452,-1.749 -4.452,-5.248L-4.452,-88.538C-4.452,-92.068 -2.958,-93.817 0,-93.817" style="fill:rgb(230,222,214);fill-rule:nonzero;"/>
            </g>
        </g>
        <g transform="matrix(4.166667,0,0,4.166667,8798,9919.5)">
            <g transform="matrix(1,0,0,1,615.2082,455.8775)">
                <path d="M0,90.997C0.63,90.05 0.991,88.767 1.084,87.143L1.084,3.851C0.991,2.23 0.63,0.944 0,-0C-0.63,-0.947 -1.758,-1.422 -3.379,-1.422L-3.379,-1.826L62.468,-1.826L64.903,4.665L64.362,4.798C63.188,1.466 60.8,-0.205 57.194,-0.205L9.736,-0.205C8.292,-0.205 7.392,-0.068 7.031,0.202C6.581,0.472 6.311,0.901 6.221,1.488C6.131,2.075 6.084,2.997 6.084,4.258L6.084,36.573L48.135,36.573C48.495,36.573 48.949,36.486 49.489,36.303C50.48,35.762 50.977,34.501 50.977,32.517L51.517,32.517L51.517,42.116L50.977,42.116C50.977,40.045 50.48,38.784 49.489,38.331C49.126,38.154 48.542,38.06 47.731,38.06L6.084,38.06L6.084,86.739C6.084,88 6.131,88.925 6.221,89.509C6.311,90.096 6.581,90.525 7.031,90.795C7.482,91.065 8.069,91.199 8.789,91.199L61.254,91.199C64.856,91.199 67.244,89.534 68.418,86.196L68.825,86.332L66.524,92.823L-3.379,92.823L-3.379,92.416C-1.758,92.416 -0.63,91.944 0,90.997" style="fill:rgb(230,222,214);fill-rule:nonzero;"/>
            </g>
        </g>
        <g transform="matrix(4.166667,0,0,4.166667,8798,9919.5)">
            <g transform="matrix(1,0,0,1,698.2265,459.7313)">
                <path d="M0,83.289L0,-0.003C0,-3.518 -1.444,-5.276 -4.326,-5.276L-4.326,-5.68L3.786,-5.68L61.387,83.155L61.387,-0.003C61.297,-1.624 60.934,-2.91 60.306,-3.854C59.673,-4.801 58.549,-5.276 56.924,-5.276L56.924,-5.68L67.338,-5.68L67.338,-5.276C64.449,-5.276 63.008,-3.518 63.008,-0.003L63.008,83.289C63.008,86.805 64.449,88.562 67.338,88.562L67.338,88.969L59.222,88.969L1.624,0.134L1.624,83.289C1.711,84.913 2.071,86.196 2.705,87.143C3.336,88.09 4.463,88.562 6.084,88.562L6.084,88.969L-4.326,88.969L-4.326,88.562C-1.444,88.562 0,86.805 0,83.289" style="fill:rgb(230,222,214);fill-rule:nonzero;"/>
            </g>
        </g>
        <g transform="matrix(4.166667,0,0,4.166667,8798,9919.5)">
            <g transform="matrix(1,0,0,1,807.2767,455.8775)">
                <path d="M0,90.997C0.584,90.05 0.922,88.767 1.012,87.143L1.012,-0.205L-27.787,-0.205C-31.392,-0.205 -33.784,1.466 -34.951,4.798L-35.358,4.665L-33.06,-1.826L43.064,-1.826L45.362,4.665L44.958,4.798C43.784,1.466 41.396,-0.205 37.79,-0.205L6.016,-0.205L6.016,87.143C6.016,90.658 7.457,92.416 10.342,92.416L10.342,92.823L-3.447,92.823L-3.447,92.416C-1.736,92.416 -0.587,91.944 0,90.997" style="fill:rgb(230,222,214);fill-rule:nonzero;"/>
            </g>
        </g>
        <g transform="matrix(4.166667,0,0,4.166667,8798,9919.5)">
            <g transform="matrix(1,0,0,1,155.6692,644.0282)">
                <path d="M0,22.753C-1.66,22.753 -3.251,22.482 -4.775,21.936C-6.299,21.394 -7.475,20.696 -8.308,19.844L-7.381,18.023C-6.593,18.788 -5.531,19.434 -4.201,19.957C-2.87,20.477 -1.469,20.738 0,20.738C1.408,20.738 2.551,20.564 3.435,20.212C4.32,19.86 4.969,19.385 5.386,18.788C5.802,18.194 6.009,17.532 6.009,16.809C6.009,15.934 5.757,15.233 5.256,14.7C4.756,14.168 4.101,13.748 3.293,13.438C2.483,13.128 1.589,12.857 0.607,12.621C-0.371,12.389 -1.353,12.137 -2.331,11.872C-3.313,11.604 -4.21,11.249 -5.03,10.8C-5.851,10.354 -6.512,9.764 -7.013,9.027C-7.513,8.295 -7.762,7.329 -7.762,6.134C-7.762,5.03 -7.471,4.01 -6.884,3.083C-6.299,2.157 -5.399,1.414 -4.185,0.849C-2.97,0.284 -1.414,0 0.481,0C1.737,0 2.983,0.177 4.22,0.529C5.453,0.881 6.519,1.366 7.413,1.982L6.616,3.868C5.657,3.229 4.64,2.76 3.565,2.46C2.489,2.163 1.45,2.015 0.449,2.015C-0.894,2.015 -2.002,2.195 -2.874,2.557C-3.749,2.919 -4.391,3.403 -4.808,4.01C-5.224,4.617 -5.431,5.305 -5.431,6.073C-5.431,6.945 -5.179,7.649 -4.679,8.181C-4.178,8.714 -3.519,9.131 -2.699,9.428C-1.879,9.725 -0.978,9.993 0,10.225C0.982,10.461 1.957,10.716 2.925,10.994C3.894,11.271 4.788,11.627 5.608,12.063C6.429,12.502 7.09,13.08 7.591,13.806C8.091,14.529 8.34,15.479 8.34,16.647C8.34,17.735 8.043,18.743 7.446,19.67C6.851,20.596 5.938,21.342 4.714,21.904C3.49,22.469 1.918,22.753 0,22.753" style="fill:rgb(230,222,214);fill-rule:nonzero;"/>
            </g>
        </g>
        <g transform="matrix(4.166667,0,0,4.166667,8798,9919.5)">
            <g transform="matrix(1,0,0,1,181.4898,644.2214)">
                <path d="M0,22.366L0,2.044L-7.862,2.044L-7.862,0L10.226,0L10.226,2.044L2.363,2.044L2.363,22.366L0,22.366Z" style="fill:rgb(230,222,214);fill-rule:nonzero;"/>
            </g>
        </g>
        <g transform="matrix(4.166667,0,0,4.166667,8798,9919.5)">
            <g transform="matrix(1,0,0,1,219.0664,644.2214)">
                <path d="M0,22.366L-5.75,14.252L-3.197,14.252L2.589,22.366L0,22.366ZM-12.909,14.378L-13.965,13.261L-6.964,13.261C-4.73,13.261 -3.032,12.77 -1.869,11.792C-0.707,10.81 -0.129,9.438 -0.129,7.669C-0.129,5.88 -0.707,4.495 -1.869,3.513C-3.032,2.535 -4.73,2.044 -6.964,2.044L-13.965,2.044L-12.909,0.927L-12.909,14.378ZM-15.275,22.366L-15.275,0L-6.903,0C-5.008,0 -3.377,0.304 -2.015,0.911C-0.649,1.518 0.4,2.389 1.133,3.529C1.869,4.669 2.238,6.051 2.238,7.669C2.238,9.244 1.869,10.604 1.133,11.743C0.4,12.883 -0.649,13.755 -2.015,14.362C-3.377,14.969 -5.008,15.272 -6.903,15.272L-13.965,15.272L-12.909,14.188L-12.909,22.366L-15.275,22.366Z" style="fill:rgb(230,222,214);fill-rule:nonzero;"/>
            </g>
        </g>
        <g transform="matrix(4.166667,0,0,4.166667,8798,9919.5)">
            <g transform="matrix(1,0,0,1,244.2122,644.2212)">
                <path d="M0,22.56C-2.854,22.56 -5.101,21.74 -6.742,20.1C-8.382,18.459 -9.202,16.031 -9.202,12.812L-9.202,0L-6.839,0L-6.839,12.719C-6.839,15.36 -6.241,17.307 -5.047,18.566C-3.855,19.822 -2.173,20.448 0,20.448C2.196,20.448 3.887,19.822 5.082,18.566C6.274,17.307 6.871,15.36 6.871,12.719L6.871,0L9.17,0L9.17,12.812C9.17,16.031 8.356,18.459 6.726,20.1C5.098,21.74 2.854,22.56 0,22.56" style="fill:rgb(230,222,214);fill-rule:nonzero;"/>
            </g>
        </g>
        <g transform="matrix(4.166667,0,0,4.166667,8798,9919.5)">
            <g transform="matrix(1,0,0,1,278.5309,644.0282)">
                <path d="M0,22.753C-1.682,22.753 -3.238,22.469 -4.666,21.904C-6.093,21.342 -7.329,20.548 -8.372,19.524C-9.415,18.501 -10.232,17.3 -10.816,15.914C-11.404,14.529 -11.695,13.018 -11.695,11.378C-11.695,9.738 -11.404,8.223 -10.816,6.838C-10.232,5.453 -9.412,4.252 -8.356,3.229C-7.3,2.205 -6.06,1.414 -4.633,0.849C-3.206,0.284 -1.65,0 0.032,0C1.65,0 3.174,0.274 4.601,0.817C6.028,1.359 7.232,2.173 8.211,3.261L6.709,4.762C5.792,3.826 4.782,3.148 3.674,2.735C2.567,2.318 1.372,2.111 0.097,2.111C-1.246,2.111 -2.493,2.341 -3.642,2.796C-4.795,3.254 -5.796,3.903 -6.648,4.746C-7.497,5.589 -8.166,6.567 -8.643,7.684C-9.121,8.805 -9.363,10.035 -9.363,11.378C-9.363,12.718 -9.121,13.948 -8.643,15.068C-8.166,16.186 -7.497,17.164 -6.648,18.007C-5.796,18.849 -4.795,19.498 -3.642,19.957C-2.493,20.415 -1.246,20.641 0.097,20.641C1.372,20.641 2.567,20.431 3.674,20.005C4.782,19.579 5.792,18.898 6.709,17.958L8.211,19.46C7.232,20.548 6.028,21.368 4.601,21.92C3.174,22.475 1.64,22.753 0,22.753" style="fill:rgb(230,222,214);fill-rule:nonzero;"/>
            </g>
        </g>
        <g transform="matrix(4.166667,0,0,4.166667,8798,9919.5)">
            <g transform="matrix(1,0,0,1,304.1255,644.2214)">
                <path d="M0,22.366L0,2.044L-7.862,2.044L-7.862,0L10.226,0L10.226,2.044L2.363,2.044L2.363,22.366L0,22.366Z" style="fill:rgb(230,222,214);fill-rule:nonzero;"/>
            </g>
        </g>
        <g transform="matrix(4.166667,0,0,4.166667,8798,9919.5)">
            <g transform="matrix(1,0,0,1,334.9604,644.2212)">
                <path d="M0,22.56C-2.854,22.56 -5.101,21.74 -6.742,20.1C-8.385,18.459 -9.202,16.031 -9.202,12.812L-9.202,0L-6.839,0L-6.839,12.719C-6.839,15.36 -6.241,17.307 -5.05,18.566C-3.855,19.822 -2.173,20.448 0,20.448C2.192,20.448 3.887,19.822 5.079,18.566C6.274,17.307 6.868,15.36 6.868,12.719L6.868,0L9.17,0L9.17,12.812C9.17,16.031 8.356,18.459 6.726,20.1C5.095,21.74 2.854,22.56 0,22.56" style="fill:rgb(230,222,214);fill-rule:nonzero;"/>
            </g>
        </g>
        <g transform="matrix(4.166667,0,0,4.166667,8798,9919.5)">
            <g transform="matrix(1,0,0,1,374.836,644.2214)">
                <path d="M0,22.366L-5.75,14.252L-3.193,14.252L2.589,22.366L0,22.366ZM-12.909,14.378L-13.961,13.261L-6.965,13.261C-4.727,13.261 -3.029,12.77 -1.869,11.792C-0.707,10.81 -0.126,9.438 -0.126,7.669C-0.126,5.88 -0.707,4.495 -1.869,3.513C-3.029,2.535 -4.727,2.044 -6.965,2.044L-13.961,2.044L-12.909,0.927L-12.909,14.378ZM-15.272,22.366L-15.272,0L-6.9,0C-5.005,0 -3.374,0.304 -2.012,0.911C-0.649,1.518 0.4,2.389 1.137,3.529C1.869,4.669 2.238,6.051 2.238,7.669C2.238,9.244 1.869,10.604 1.137,11.743C0.4,12.883 -0.649,13.755 -2.012,14.362C-3.374,14.969 -5.005,15.272 -6.9,15.272L-13.961,15.272L-12.909,14.188L-12.909,22.366L-15.272,22.366Z" style="fill:rgb(230,222,214);fill-rule:nonzero;"/>
            </g>
        </g>
        <g transform="matrix(4.166667,0,0,4.166667,8798,9919.5)">
            <g transform="matrix(1,0,0,1,0,310.809)">
                <path d="M393.082,343.412L404.906,343.412L404.906,345.427L393.082,345.427L393.082,343.412ZM393.337,353.735L406.791,353.735L406.791,355.778L390.973,355.778L390.973,333.413L406.31,333.413L406.31,335.456L393.337,335.456L393.337,353.735Z" style="fill:rgb(230,222,214);fill-rule:nonzero;"/>
            </g>
        </g>
        <g transform="matrix(4.166667,0,0,4.166667,8798,9919.5)">
            <g transform="matrix(1,0,0,1,439.7023,646.1685)">
                <path d="M0,18.472L7.891,18.472C9.851,18.472 11.352,18.136 12.399,17.465C13.441,16.793 13.965,15.721 13.965,14.252C13.965,12.805 13.441,11.743 12.399,11.075C11.352,10.403 9.851,10.067 7.891,10.067L-0.255,10.067L-0.255,8.117L7.126,8.117C8.915,8.117 10.303,7.778 11.294,7.094C12.286,6.412 12.78,5.402 12.78,4.059C12.78,2.696 12.286,1.679 11.294,1.007C10.303,0.336 8.915,0 7.126,0L0,0L0,18.472ZM-2.367,20.419L-2.367,-1.947L7.284,-1.947C9.777,-1.947 11.711,-1.446 13.083,-0.445C14.458,0.555 15.146,1.973 15.146,3.804C15.146,5.018 14.862,6.041 14.297,6.871C13.735,7.701 12.967,8.33 11.998,8.757C11.03,9.183 9.967,9.396 8.818,9.396L9.36,8.627C10.787,8.627 12.018,8.847 13.051,9.283C14.084,9.722 14.891,10.371 15.466,11.233C16.041,12.095 16.328,13.167 16.328,14.446C16.328,16.341 15.631,17.81 14.236,18.853C12.838,19.899 10.736,20.419 7.923,20.419L-2.367,20.419Z" style="fill:rgb(230,222,214);fill-rule:nonzero;"/>
            </g>
        </g>
        <g transform="matrix(4.166667,0,0,4.166667,8798,9919.5)">
            <g transform="matrix(1,0,0,1,0,310.809)">
                <path d="M471.848,343.412L483.669,343.412L483.669,345.427L471.848,345.427L471.848,343.412ZM472.103,353.735L485.554,353.735L485.554,355.778L469.736,355.778L469.736,333.413L485.073,333.413L485.073,335.456L472.103,335.456L472.103,353.735Z" style="fill:rgb(230,222,214);fill-rule:nonzero;"/>
            </g>
        </g>
        <g transform="matrix(4.166667,0,0,4.166667,8798,9919.5)">
            <g transform="matrix(1,0,0,1,0,310.809)">
                <path d="M501.53,344.245L513.354,344.245L513.354,346.289L501.53,346.289L501.53,344.245ZM501.789,355.778L499.422,355.778L499.422,333.413L514.759,333.413L514.759,335.456L501.789,335.456L501.789,355.778Z" style="fill:rgb(230,222,214);fill-rule:nonzero;"/>
            </g>
        </g>
        <g transform="matrix(4.166667,0,0,4.166667,8798,9919.5)">
            <g transform="matrix(1,0,0,1,537.4118,646.1396)">
                <path d="M0,18.53C1.343,18.53 2.583,18.304 3.723,17.845C4.863,17.387 5.854,16.738 6.696,15.895C7.536,15.053 8.191,14.074 8.66,12.957C9.128,11.837 9.363,10.607 9.363,9.267C9.363,7.923 9.128,6.693 8.66,5.573C8.191,4.456 7.536,3.477 6.696,2.635C5.854,1.792 4.863,1.143 3.723,0.684C2.583,0.229 1.343,-0 0,-0C-1.34,-0 -2.586,0.229 -3.736,0.684C-4.888,1.143 -5.889,1.792 -6.742,2.635C-7.594,3.477 -8.253,4.456 -8.721,5.573C-9.189,6.693 -9.425,7.923 -9.425,9.267C-9.425,10.587 -9.189,11.811 -8.721,12.941C-8.253,14.068 -7.594,15.053 -6.742,15.895C-5.889,16.738 -4.888,17.387 -3.736,17.845C-2.586,18.304 -1.34,18.53 0,18.53M0,20.642C-1.682,20.642 -3.242,20.357 -4.679,19.792C-6.119,19.231 -7.365,18.43 -8.417,17.397C-9.473,16.363 -10.293,15.159 -10.878,13.787C-11.465,12.411 -11.756,10.907 -11.756,9.267C-11.756,7.626 -11.465,6.119 -10.878,4.743C-10.293,3.371 -9.473,2.167 -8.417,1.133C-7.365,0.1 -6.122,-0.697 -4.695,-1.262C-3.268,-1.828 -1.702,-2.112 0,-2.112C1.685,-2.112 3.238,-1.828 4.666,-1.262C6.093,-0.697 7.336,0.094 8.388,1.117C9.444,2.141 10.264,3.342 10.849,4.727C11.436,6.112 11.727,7.626 11.727,9.267C11.727,10.907 11.436,12.418 10.849,13.803C10.264,15.188 9.444,16.389 8.388,17.413C7.336,18.436 6.093,19.231 4.666,19.792C3.238,20.357 1.685,20.642 0,20.642" style="fill:rgb(230,222,214);fill-rule:nonzero;"/>
            </g>
        </g>
        <g transform="matrix(4.166667,0,0,4.166667,8798,9919.5)">
            <g transform="matrix(1,0,0,1,578.0267,644.2214)">
                <path d="M0,22.366L-5.754,14.252L-3.196,14.252L2.586,22.366L0,22.366ZM-12.909,14.378L-13.964,13.261L-6.968,13.261C-4.73,13.261 -3.032,12.77 -1.869,11.792C-0.71,10.81 -0.129,9.438 -0.129,7.669C-0.129,5.88 -0.71,4.495 -1.869,3.513C-3.032,2.535 -4.73,2.044 -6.968,2.044L-13.964,2.044L-12.909,0.927L-12.909,14.378ZM-15.275,22.366L-15.275,0L-6.903,0C-5.008,0 -3.377,0.304 -2.015,0.911C-0.652,1.518 0.397,2.389 1.133,3.529C1.87,4.669 2.234,6.051 2.234,7.669C2.234,9.244 1.87,10.604 1.133,11.743C0.397,12.883 -0.652,13.755 -2.015,14.362C-3.377,14.969 -5.008,15.272 -6.903,15.272L-13.964,15.272L-12.909,14.188L-12.909,22.366L-15.275,22.366Z" style="fill:rgb(230,222,214);fill-rule:nonzero;"/>
            </g>
        </g>
        <g transform="matrix(4.166667,0,0,4.166667,8798,9919.5)">
            <g transform="matrix(1,0,0,1,0,310.809)">
                <path d="M596.269,343.412L608.093,343.412L608.093,345.427L596.269,345.427L596.269,343.412ZM596.528,353.735L609.979,353.735L609.979,355.778L594.161,355.778L594.161,333.413L609.498,333.413L609.498,335.456L596.528,335.456L596.528,353.735Z" style="fill:rgb(230,222,214);fill-rule:nonzero;"/>
            </g>
        </g>
        <g transform="matrix(4.166667,0,0,4.166667,8798,9919.5)">
            <g transform="matrix(1,0,0,1,646.6933,644.0282)">
                <path d="M0,22.753C-1.66,22.753 -3.255,22.482 -4.775,21.936C-6.299,21.394 -7.478,20.696 -8.308,19.844L-7.381,18.023C-6.593,18.788 -5.534,19.434 -4.201,19.957C-2.87,20.477 -1.469,20.738 0,20.738C1.408,20.738 2.551,20.564 3.435,20.212C4.32,19.86 4.969,19.385 5.386,18.788C5.799,18.194 6.009,17.532 6.009,16.809C6.009,15.934 5.757,15.233 5.256,14.7C4.756,14.168 4.101,13.748 3.293,13.438C2.483,13.128 1.589,12.857 0.607,12.621C-0.371,12.389 -1.353,12.137 -2.331,11.872C-3.313,11.604 -4.214,11.249 -5.03,10.8C-5.854,10.354 -6.512,9.764 -7.013,9.027C-7.513,8.295 -7.765,7.329 -7.765,6.134C-7.765,5.03 -7.471,4.01 -6.884,3.083C-6.299,2.157 -5.399,1.414 -4.185,0.849C-2.971,0.284 -1.417,0 0.481,0C1.737,0 2.983,0.177 4.22,0.529C5.453,0.881 6.519,1.366 7.413,1.982L6.616,3.868C5.657,3.229 4.64,2.76 3.565,2.46C2.486,2.163 1.45,2.015 0.449,2.015C-0.894,2.015 -2.002,2.195 -2.874,2.557C-3.749,2.919 -4.394,3.403 -4.808,4.01C-5.224,4.617 -5.431,5.305 -5.431,6.073C-5.431,6.945 -5.182,7.649 -4.682,8.181C-4.181,8.714 -3.519,9.131 -2.699,9.428C-1.879,9.725 -0.978,9.993 0,10.225C0.982,10.461 1.953,10.716 2.925,10.994C3.894,11.271 4.788,11.627 5.608,12.063C6.429,12.502 7.087,13.08 7.591,13.806C8.091,14.529 8.34,15.479 8.34,16.647C8.34,17.735 8.043,18.743 7.446,19.67C6.848,20.596 5.938,21.342 4.714,21.904C3.487,22.469 1.918,22.753 0,22.753" style="fill:rgb(230,222,214);fill-rule:nonzero;"/>
            </g>
        </g>
        <g transform="matrix(4.166667,0,0,4.166667,8798,9919.5)">
            <g transform="matrix(1,0,0,1,677.4959,644.2212)">
                <path d="M0,22.56C-2.854,22.56 -5.102,21.74 -6.742,20.1C-8.382,18.459 -9.202,16.031 -9.202,12.812L-9.202,0L-6.839,0L-6.839,12.719C-6.839,15.36 -6.241,17.307 -5.05,18.566C-3.855,19.822 -2.173,20.448 0,20.448C2.192,20.448 3.887,19.822 5.082,18.566C6.273,17.307 6.871,15.36 6.871,12.719L6.871,0L9.17,0L9.17,12.812C9.17,16.031 8.356,18.459 6.726,20.1C5.095,21.74 2.854,22.56 0,22.56" style="fill:rgb(230,222,214);fill-rule:nonzero;"/>
            </g>
        </g>
        <g transform="matrix(4.166667,0,0,4.166667,8798,9919.5)">
            <g transform="matrix(1,0,0,1,717.3746,644.2214)">
                <path d="M0,22.366L-5.754,14.252L-3.196,14.252L2.586,22.366L0,22.366ZM-12.909,14.378L-13.964,13.261L-6.968,13.261C-4.73,13.261 -3.032,12.77 -1.869,11.792C-0.71,10.81 -0.129,9.438 -0.129,7.669C-0.129,5.88 -0.71,4.495 -1.869,3.513C-3.032,2.535 -4.73,2.044 -6.968,2.044L-13.964,2.044L-12.909,0.927L-12.909,14.378ZM-15.275,22.366L-15.275,0L-6.903,0C-5.008,0 -3.377,0.304 -2.015,0.911C-0.652,1.518 0.397,2.389 1.133,3.529C1.869,4.669 2.234,6.051 2.234,7.669C2.234,9.244 1.869,10.604 1.133,11.743C0.397,12.883 -0.652,13.755 -2.015,14.362C-3.377,14.969 -5.008,15.272 -6.903,15.272L-13.964,15.272L-12.909,14.188L-12.909,22.366L-15.275,22.366Z" style="fill:rgb(230,222,214);fill-rule:nonzero;"/>
            </g>
        </g>
        <g transform="matrix(4.166667,0,0,4.166667,8798,9919.5)">
            <g transform="matrix(1,0,0,1,0,310.809)">
                <path d="M735.617,344.245L747.441,344.245L747.441,346.289L735.617,346.289L735.617,344.245ZM735.876,355.778L733.509,355.778L733.509,333.413L748.846,333.413L748.846,335.456L735.876,335.456L735.876,355.778Z" style="fill:rgb(230,222,214);fill-rule:nonzero;"/>
            </g>
        </g>
        <g transform="matrix(4.166667,0,0,4.166667,8798,9919.5)">
            <g transform="matrix(1,0,0,1,761.3733,650.1942)">
                <path d="M0,10.42L0.701,8.502L13.706,8.502L14.41,10.42L0,10.42ZM-4.026,16.393L6.199,-5.973L8.53,-5.973L18.756,16.393L16.263,16.393L6.868,-4.6L7.827,-4.6L-1.566,16.393L-4.026,16.393Z" style="fill:rgb(230,222,214);fill-rule:nonzero;"/>
            </g>
        </g>
        <g transform="matrix(4.166667,0,0,4.166667,8798,9919.5)">
            <g transform="matrix(1,0,0,1,801.5394,644.0282)">
                <path d="M0,22.753C-1.685,22.753 -3.238,22.469 -4.666,21.904C-6.093,21.342 -7.329,20.548 -8.372,19.524C-9.415,18.501 -10.232,17.3 -10.816,15.914C-11.404,14.529 -11.695,13.018 -11.695,11.378C-11.695,9.738 -11.404,8.223 -10.816,6.838C-10.232,5.453 -9.412,4.252 -8.356,3.229C-7.304,2.205 -6.06,1.414 -4.633,0.849C-3.206,0.284 -1.653,0 0.032,0C1.65,0 3.174,0.274 4.601,0.817C6.028,1.359 7.232,2.173 8.211,3.261L6.709,4.762C5.792,3.826 4.782,3.148 3.674,2.735C2.567,2.318 1.372,2.111 0.094,2.111C-1.246,2.111 -2.493,2.341 -3.642,2.796C-4.795,3.254 -5.796,3.903 -6.648,4.746C-7.5,5.589 -8.166,6.567 -8.643,7.684C-9.125,8.805 -9.364,10.035 -9.364,11.378C-9.364,12.718 -9.125,13.948 -8.643,15.068C-8.166,16.186 -7.5,17.164 -6.648,18.007C-5.796,18.849 -4.795,19.498 -3.642,19.957C-2.493,20.415 -1.246,20.641 0.094,20.641C1.372,20.641 2.567,20.431 3.674,20.005C4.782,19.579 5.792,18.898 6.709,17.958L8.211,19.46C7.232,20.548 6.028,21.368 4.601,21.92C3.174,22.475 1.64,22.753 0,22.753" style="fill:rgb(230,222,214);fill-rule:nonzero;"/>
            </g>
        </g>
        <g transform="matrix(4.166667,0,0,4.166667,8798,9919.5)">
            <g transform="matrix(1,0,0,1,0,310.809)">
                <path d="M825.216,343.412L837.04,343.412L837.04,345.427L825.216,345.427L825.216,343.412ZM825.474,353.735L838.926,353.735L838.926,355.778L823.108,355.778L823.108,333.413L838.444,333.413L838.444,335.456L825.474,335.456L825.474,353.735Z" style="fill:rgb(230,222,214);fill-rule:nonzero;"/>
            </g>
        </g>
        <g transform="matrix(4.166667,0,0,4.166667,8798,9919.5)">
            <g transform="matrix(1,0,0,1,379.2546,577.3502)">
                <path d="M0,40.213C-2.944,40.213 -5.73,39.713 -8.354,38.713C-10.979,37.713 -13.01,36.421 -14.445,34.834L-13.14,32.682C-11.78,34.079 -9.923,35.259 -7.562,36.222C-5.202,37.185 -2.699,37.666 -0.056,37.666C2.587,37.666 4.749,37.315 6.429,36.617C8.109,35.921 9.354,34.986 10.168,33.815C10.979,32.644 11.385,31.34 11.385,29.905C11.385,28.206 10.932,26.846 10.025,25.827C9.118,24.809 7.929,23.998 6.457,23.393C4.985,22.79 3.379,22.278 1.643,21.861C-0.096,21.448 -1.851,21.004 -3.624,20.532C-5.401,20.06 -7.025,19.448 -8.497,18.691C-9.969,17.936 -11.149,16.908 -12.038,15.603C-12.923,14.302 -13.367,12.613 -13.367,10.535C-13.367,8.647 -12.876,6.911 -11.895,5.324C-10.913,3.737 -9.385,2.454 -7.308,1.473C-5.23,0.491 -2.568,0 0.68,0C2.87,0 5.031,0.32 7.165,0.963C9.298,1.606 11.118,2.473 12.631,3.569L11.553,5.889C9.892,4.758 8.109,3.917 6.202,3.37C4.295,2.824 2.453,2.547 0.68,2.547C-1.851,2.547 -3.947,2.907 -5.609,3.625C-7.27,4.342 -8.497,5.296 -9.289,6.485C-10.081,7.675 -10.479,9.007 -10.479,10.479C-10.479,12.178 -10.035,13.538 -9.146,14.557C-8.261,15.576 -7.081,16.389 -5.609,16.992C-4.134,17.597 -2.513,18.107 -0.736,18.52C1.037,18.936 2.795,19.38 4.531,19.852C6.267,20.324 7.873,20.939 9.345,21.694C10.817,22.448 12.007,23.467 12.913,24.753C13.82,26.036 14.274,27.697 14.274,29.734C14.274,31.585 13.764,33.315 12.743,34.918C11.724,36.523 10.168,37.806 8.072,38.769C5.975,39.732 3.286,40.213 0,40.213" style="fill:rgb(230,222,214);fill-rule:nonzero;"/>
            </g>
        </g>
        <g transform="matrix(4.166667,0,0,4.166667,8798,9919.5)">
            <g transform="matrix(1,0,0,1,421.6784,577.6336)">
                <path d="M0,39.647L0,2.605L-14.274,2.605L-14.274,0L17.162,0L17.162,2.605L2.888,2.605L2.888,39.647L0,39.647Z" style="fill:rgb(230,222,214);fill-rule:nonzero;"/>
            </g>
        </g>
        <g transform="matrix(4.166667,0,0,4.166667,8798,9919.5)">
            <g transform="matrix(1,0,0,1,471.9751,577.6332)">
                <path d="M0,39.93C-4.91,39.93 -8.78,38.498 -11.612,35.626C-14.445,32.759 -15.861,28.489 -15.861,22.827L-15.861,0L-12.972,0L-12.972,22.712C-12.972,27.659 -11.839,31.321 -9.572,33.7C-7.308,36.079 -4.1,37.268 0.056,37.268C4.171,37.268 7.364,36.079 9.628,33.7C11.895,31.321 13.025,27.659 13.025,22.712L13.025,0L15.917,0L15.917,22.827C15.917,28.489 14.5,32.759 11.668,35.626C8.836,38.498 4.944,39.93 0,39.93" style="fill:rgb(230,222,214);fill-rule:nonzero;"/>
            </g>
        </g>
        <g transform="matrix(4.166667,0,0,4.166667,8798,9919.5)">
            <g transform="matrix(1,0,0,1,515.5884,580.2389)">
                <path d="M0,34.436L12.575,34.436C16.314,34.436 19.56,33.7 22.318,32.228C25.072,30.756 27.206,28.725 28.718,26.141C30.228,23.554 30.982,20.578 30.982,17.218C30.982,13.858 30.228,10.885 28.718,8.298C27.206,5.711 25.072,3.68 22.318,2.208C19.56,0.736 16.314,0 12.575,0L0,0L0,34.436ZM-2.888,37.042L-2.888,-2.606L12.802,-2.606C16.991,-2.606 20.675,-1.755 23.846,-0.056C27.016,1.643 29.482,3.985 31.237,6.966C32.992,9.951 33.871,13.367 33.871,17.218C33.871,21.069 32.992,24.488 31.237,27.47C29.482,30.454 27.016,32.793 23.846,34.495C20.675,36.194 16.991,37.042 12.802,37.042L-2.888,37.042Z" style="fill:rgb(230,222,214);fill-rule:nonzero;"/>
            </g>
        </g>
        <g transform="matrix(4.166667,0,0,4.166667,8798,9919.5)">
            <g transform="matrix(1,0,0,1,0,194.913)">
                <rect x="570.811" y="382.72" width="2.888" height="39.647" style="fill:rgb(230,222,214);"/>
            </g>
        </g>
        <g transform="matrix(4.166667,0,0,4.166667,8798,9919.5)">
            <g transform="matrix(1,0,0,1,615.6725,580.0126)">
                <path d="M0,34.889C2.528,34.889 4.87,34.457 7.022,33.588C9.174,32.718 11.044,31.491 12.631,29.904C14.215,28.32 15.451,26.469 16.339,24.354C17.227,22.239 17.671,19.938 17.671,17.444C17.671,14.916 17.227,12.603 16.339,10.506C15.451,8.41 14.215,6.568 12.631,4.984C11.044,3.397 9.174,2.17 7.022,1.301C4.87,0.434 2.528,0 0,0C-2.531,0 -4.873,0.434 -7.025,1.301C-9.177,2.17 -11.056,3.397 -12.662,4.984C-14.264,6.568 -15.513,8.41 -16.398,10.506C-17.286,12.603 -17.73,14.916 -17.73,17.444C-17.73,19.938 -17.286,22.239 -16.398,24.354C-15.513,26.469 -14.264,28.32 -12.662,29.904C-11.056,31.491 -9.177,32.718 -7.025,33.588C-4.873,34.457 -2.531,34.889 0,34.889M0,37.551C-2.947,37.551 -5.674,37.051 -8.187,36.051C-10.699,35.05 -12.889,33.634 -14.755,31.802C-16.625,29.973 -18.069,27.839 -19.091,25.401C-20.109,22.966 -20.619,20.314 -20.619,17.444C-20.619,14.575 -20.109,11.922 -19.091,9.488C-18.069,7.053 -16.625,4.919 -14.755,3.087C-12.889,1.254 -10.699,-0.162 -8.187,-1.162C-5.674,-2.162 -2.947,-2.662 0,-2.662C2.944,-2.662 5.671,-2.162 8.183,-1.162C10.693,-0.162 12.873,1.245 14.724,3.059C16.575,4.869 18.019,6.994 19.057,9.429C20.097,11.866 20.616,14.537 20.616,17.444C20.616,20.351 20.097,23.025 19.057,25.46C18.019,27.895 16.575,30.019 14.724,31.83C12.873,33.644 10.693,35.05 8.183,36.051C5.671,37.051 2.944,37.551 0,37.551" style="fill:rgb(230,222,214);fill-rule:nonzero;"/>
            </g>
        </g>
        <g transform="matrix(4.166667,0,0,4.166667,8798,9919.5)">
            <g transform="matrix(-1,0,0,1,507.586,194.914)">
                <rect x="171.393" y="401.624" width="164.8" height="1.838" style="fill:rgb(230,222,214);"/>
            </g>
        </g>
        <g transform="matrix(4.166667,0,0,4.166667,8798,9919.5)">
            <g transform="matrix(-1,0,0,1,1494.61,194.914)">
                <rect x="664.905" y="401.624" width="164.8" height="1.838" style="fill:rgb(230,222,214);"/>
            </g>
        </g>
        <g transform="matrix(4.166667,0,0,4.166667,8798,9919.5)">
            <g transform="matrix(1,0,0,1,504.2097,334.7057)">
                <path d="M0,136.169C0,136.389 -0.055,136.554 -0.165,136.665C-0.193,136.747 -0.248,136.802 -0.331,136.858C-0.551,137.133 -0.854,137.243 -0.964,137.601C-1.047,137.629 -1.157,137.656 -1.239,137.656C-1.212,136.775 -1.239,135.866 -1.295,134.985C-1.405,132.038 -1.79,129.118 -2.369,126.199C-2.396,126.116 -2.396,126.033 -2.424,125.951C-2.644,124.821 -2.892,123.72 -3.195,122.618C-3.25,122.343 -3.305,122.067 -3.388,121.792C-3.443,121.544 -3.525,121.324 -3.58,121.103C-3.911,119.836 -4.297,118.625 -4.737,117.385C-4.903,116.917 -5.095,116.394 -5.288,115.925C-7.051,111.298 -9.419,107.002 -13.055,103.531C-14.487,102.182 -16.112,101.025 -17.875,100.089C-20.629,98.656 -23.659,98.023 -26.633,97.334C-26.991,97.224 -27.239,97.39 -27.515,97.582C-29.25,99.014 -31.04,100.419 -32.94,101.631C-34.676,102.733 -36.383,103.834 -38.256,104.716C-40.873,105.928 -43.654,106.065 -46.464,106.093C-53.267,106.148 -59.601,104.44 -65.55,101.245C-65.964,101.025 -66.377,100.832 -66.762,100.447C-66.404,100.364 -66.129,100.419 -65.826,100.474C-64.807,100.75 -63.788,100.97 -62.796,101.273C-59.739,102.265 -56.792,101.851 -53.928,100.667C-52.027,99.923 -50.209,98.96 -48.309,98.188C-46.519,97.472 -44.701,96.729 -42.718,96.508C-39.964,96.178 -37.182,95.902 -34.373,96.123C-33.712,96.178 -33.051,96.288 -32.307,96.178C-32.445,95.957 -32.665,95.957 -32.858,95.902C-37.457,94.663 -41.561,92.404 -45.417,89.623C-49.796,86.51 -53.542,82.765 -56.957,78.661C-57.205,78.358 -57.426,78.275 -57.839,78.385C-61.034,79.184 -64.146,80.176 -67.396,80.671C-70.508,81.195 -73.538,80.782 -76.595,80.121C-83.728,78.523 -90.421,76.017 -96.59,71.968C-102.126,68.333 -106.753,63.788 -110.609,58.417C-110.664,58.28 -110.775,58.114 -110.775,57.922C-110.334,58.362 -109.811,58.775 -109.398,59.271C-106.478,62.659 -102.622,64.008 -98.27,64.201C-94.387,64.367 -90.531,64.036 -86.648,63.981C-82.186,63.898 -77.807,64.284 -73.565,65.744C-69.627,67.093 -66.184,69.214 -63.099,71.941C-62.273,72.684 -61.447,73.455 -60.483,74.089C-61.116,73.207 -61.749,72.271 -62.355,71.39C-64.834,67.754 -66.707,63.843 -68.525,59.877C-69.489,57.756 -69.516,57.756 -71.775,57.288C-74.254,56.71 -76.76,56.076 -79.156,55.25C-83.26,53.818 -86.675,51.312 -89.677,48.199C-94.497,43.187 -97.775,37.237 -99.896,30.655C-101.631,25.091 -102.071,19.445 -101.41,13.689C-100.997,10.219 -100.584,6.776 -100.777,3.278C-100.887,1.681 -101.163,0.083 -101.383,-1.487C-100.226,2.066 -97.775,4.683 -95.186,7.134C-92.046,10.081 -88.631,12.642 -85.298,15.341C-83.04,17.214 -80.781,19.087 -78.853,21.318C-76.843,23.714 -75.438,26.441 -74.336,29.305C-71.747,36.026 -70.04,42.939 -69.682,50.155C-69.627,52.028 -69.461,53.928 -69.103,55.801C-69.048,56.021 -69.021,56.242 -68.911,56.434C-67.175,59.602 -65.853,63.017 -64.146,66.212C-63.733,66.955 -63.319,67.699 -62.658,68.333C-62.796,67.727 -62.961,67.148 -63.127,66.542C-64.228,61.86 -64.724,57.123 -64.752,52.331C-64.807,46.409 -64.118,40.543 -62.521,34.814C-61.639,31.591 -60.455,28.451 -58.885,25.504C-57.673,23.191 -56.214,21.098 -54.506,19.197C-54.203,18.867 -53.955,18.564 -53.459,18.344C-53.68,19.252 -54.148,19.941 -54.478,20.712C-55.993,24.596 -55.718,28.451 -54.368,32.307C-53.211,35.778 -51.642,39.028 -50.485,42.498C-49.328,45.968 -48.584,49.494 -49.273,53.184C-49.906,56.627 -51.559,59.547 -53.735,62.246C-55.415,64.367 -57.426,66.184 -59.216,68.195C-59.849,68.938 -60.455,69.682 -60.841,70.619C-60.978,71.004 -60.951,71.335 -60.703,71.665C-56.544,77.752 -51.724,83.26 -45.83,87.805C-43.792,89.375 -41.644,90.752 -39.385,91.964C-37.678,92.873 -35.915,93.506 -34.125,94.222C-33.96,94.277 -33.767,94.415 -33.629,94.277C-33.491,94.112 -33.546,93.837 -33.629,93.699C-34.097,92.707 -34.235,91.606 -34.648,90.614C-35.337,89.017 -35.888,87.364 -36.521,85.739C-37.32,83.701 -38.146,81.663 -38.945,79.625C-41.065,74.199 -42.828,68.663 -42.745,62.742C-42.718,59.96 -42.085,57.288 -41.561,54.617C-41.231,52.744 -40.873,50.871 -40.68,48.943C-40.625,48.97 -40.57,48.97 -40.57,48.97C-40.101,51.89 -38.862,54.451 -37.733,57.095C-36.411,59.987 -34.979,62.797 -33.96,65.826C-33.161,68.305 -32.5,70.839 -32.032,73.428C-31.646,75.438 -31.453,77.449 -31.453,79.487C-31.426,82.076 -31.729,84.638 -32.087,87.199C-32.417,89.457 -32.61,91.743 -32.885,93.947C-32.94,94.443 -32.748,94.608 -32.334,94.69C-30.104,95.324 -27.845,95.737 -25.587,96.26C-23.521,96.701 -21.483,97.197 -19.527,97.995C-17.544,98.767 -15.672,99.731 -14.047,101.08C-13.909,101.19 -13.799,101.273 -13.661,101.356C-13.496,101.108 -13.633,101.025 -13.716,100.888C-16.002,97.197 -17.765,93.258 -19.142,89.127C-20.161,86.18 -21.042,83.205 -21.648,80.148C-22.282,77.036 -22.915,73.896 -22.75,70.701C-22.667,68.388 -22.612,66.074 -22.337,63.761C-22.282,62.879 -22.282,62.025 -22.227,61.172C-22.089,59.877 -21.813,58.638 -21.373,57.343C-21.015,57.536 -20.905,57.812 -20.905,58.17C-20.849,59.794 -20.657,61.447 -20.188,62.989C-19.582,64.972 -18.536,66.763 -17.186,68.443C-15.313,70.756 -13.138,72.849 -11.1,75.08C-8.621,77.78 -6.748,80.837 -6.032,84.527C-5.646,86.538 -5.701,88.576 -5.922,90.614C-6.169,93.396 -6.886,96.068 -7.244,98.767C-7.574,101.411 -8.015,104.027 -8.483,106.589C-8.538,106.947 -8.4,107.195 -8.208,107.442C-6.252,110.582 -4.682,113.887 -3.498,117.385C-3.36,117.853 -3.195,118.349 -3.03,118.817C-2.727,119.809 -0.606,128.622 -0.193,132.12C-0.193,132.258 -0.165,132.341 -0.165,132.478C-0.028,133.69 -0.055,134.957 0,136.169" style="fill:rgb(230,222,214);fill-rule:nonzero;"/>
            </g>
        </g>
    </g>
</svg>
